<?xml version="1.0" encoding="UTF-8"?>
<!DOCTYPE svg PUBLIC "-//W3C//DTD SVG 1.1//EN" "http://www.w3.org/Graphics/SVG/1.1/DTD/svg11.dtd">
<!-- Creator: CorelDRAW 2018 -->
<svg xmlns="http://www.w3.org/2000/svg" xml:space="preserve" width="1.50737in" height="0.782992in" version="1.1" style="shape-rendering:geometricPrecision; text-rendering:geometricPrecision; image-rendering:optimizeQuality; fill-rule:evenodd; clip-rule:evenodd"
viewBox="0 0 6026.7 3130.5"
 xmlns:xlink="http://www.w3.org/1999/xlink">
 <defs>
  <style type="text/css">
   <![CDATA[
    .fil2 {fill:#00DFE3}
    .fil0 {fill:#010037}
    .fil4 {fill:#BFFFBF}
    .fil3 {fill:#FFB5FF}
    .fil1 {fill:#FFFFAB}
    .fil5 {fill:white}
   ]]>
  </style>
 </defs>
 <g id="Capa_x0020_1">
  <metadata id="CorelCorpID_0Corel-Layer"/>
  <path class="fil0" d="M-0 0c2008.9,0 4017.8,0 6026.7,0l0 2473.2c0,361.6 -295.8,657.4 -657.4,657.4l-5369.4 0 0 -3130.5z"/>
  <path class="fil1" d="M4985.8 709.1c257.8,0 466.7,209 466.7,466.8 0,257.8 -209,466.7 -466.7,466.7 -257.8,0 -466.8,-209 -466.8,-466.7 0,-257.8 209,-466.8 466.8,-466.8zm0 181.7c157.4,0 285,127.6 285,285.1 0,157.4 -127.6,285 -285,285 -157.4,0 -285.1,-127.6 -285.1,-285 0,-157.5 127.6,-285.1 285.1,-285.1z"/>
  <path class="fil2" d="M1792.7 709.1c257.8,0 466.7,209 466.7,466.8l0 465.4 -181.7 0 0 -465.4c0,-157.5 -127.6,-285.1 -285,-285.1 -157.5,0 -285.1,127.6 -285.1,285.1l0 465.4 -181.7 0 0 -465.4c0,-157.5 -127.6,-285.1 -285,-285.1 -157.4,0 -285.1,127.6 -285.1,285.1l0 465.4 -181.7 0 0 -465.4c0,-257.8 209,-466.8 466.8,-466.8 154.2,0 290.9,74.8 375.9,190.1 85,-115.3 221.7,-190.1 375.9,-190.1z"/>
  <path class="fil3" d="M4206.5 408.4l181.7 0 0 767.5 0 19.4 -0.4 0c-10.2,248.8 -215,447.3 -466.3,447.3 -257.8,0 -466.8,-209 -466.8,-466.7 0,-257.8 209,-466.8 466.8,-466.8 107.4,0 206.2,36.3 285,97.2l0 -397.9zm-285 482.4c157.4,0 285,127.6 285,285.1 0,157.4 -127.6,285 -285,285 -157.5,0 -285.1,-127.6 -285.1,-285 0,-157.5 127.6,-285.1 285.1,-285.1z"/>
  <path class="fil4" d="M2857.1 709.1c257.8,0 466.7,209 466.7,466.8 0,257.8 -209,466.7 -466.7,466.7 -257.8,0 -466.8,-209 -466.8,-466.7 0,-257.8 209,-466.8 466.8,-466.8zm0 181.7c157.4,0 285,127.6 285,285.1 0,157.4 -127.6,285 -285,285 -157.5,0 -285.1,-127.6 -285.1,-285 0,-157.5 127.6,-285.1 285.1,-285.1z"/>
  <path class="fil5" d="M2558.1 2238.5c0,497.8 -696.7,497.7 -696.7,0l0 -360.1 147.3 0 0 360.1c0,304 402.1,304 402.1,0l0 -360.1 147.3 0 0 360.1zm-1605.5 -378.4c127.7,0 240.7,63.3 309.2,160.3l-152.1 48.7c-41.2,-38.3 -96.4,-61.7 -157.1,-61.7 -127.7,0 -231.1,103.5 -231.1,231.1 0,127.6 103.5,231.1 231.1,231.1 67.5,0 128.3,-29 170.6,-75.2l148.5 47.5c-67.2,105.2 -185,174.9 -319.1,174.9 -209,0 -378.4,-169.4 -378.4,-378.4 0,-209 169.4,-378.4 378.4,-378.4zm2090 0c127.7,0 240.7,63.3 309.2,160.3l-152.1 48.7c-41.2,-38.3 -96.4,-61.7 -157.1,-61.7 -127.7,0 -231.1,103.5 -231.1,231.1 0,127.6 103.5,231.1 231.1,231.1 67.5,0 128.3,-29 170.6,-75.2l148.5 47.5c-67.2,105.2 -185,174.9 -319.1,174.9 -209,0 -378.4,-169.4 -378.4,-378.4 0,-209 169.4,-378.4 378.4,-378.4zm1224.9 18.4l147.3 0 0 78.1c63.8,-49 143.6,-78.1 230.2,-78.1l0 147.3c-120.6,0 -219.6,55.4 -230.2,173.3l0 417.5 -147.3 0 0 -738.1zm-2889.7 0l147.3 0 0 78.1c63.8,-49 143.6,-78.1 230.2,-78.1l0 147.3c-120.6,0 -219.6,73.7 -230.2,191.6l0 399.2 -147.3 0 0 -738.1zm2783.6 310.8l-580.5 155.6c48.8,94.4 158.2,145.6 265.1,117 60.2,-16.1 108.5,-54.7 138.3,-104.2l145.7 39.1c-45.4,98.6 -132.8,177.1 -245.9,207.4 -201.9,54.1 -409.4,-65.7 -463.5,-267.6 -54.1,-201.9 65.7,-409.4 267.6,-463.5 169.2,-45.3 342.3,31.5 425.8,176.5 24.7,42.9 40.9,90.7 47.4,139.8zm-198.2 -99.4c-55.9,-66.6 -147.3,-98.6 -236.8,-74.6 -89.5,24 -152.6,97.4 -167.8,183l404.6 -108.4zm1106.3 -229.8c209,0 378.4,169.4 378.4,378.4 0,209 -169.4,378.4 -378.4,378.4 -209,0 -378.4,-169.4 -378.4,-378.4 0,-209 169.4,-378.4 378.4,-378.4zm0 147.3c127.6,0 231.1,103.5 231.1,231.1 0,127.6 -103.5,231.1 -231.1,231.1 -127.7,0 -231.1,-103.5 -231.1,-231.1 0,-127.7 103.5,-231.1 231.1,-231.1z"/>
 </g>
</svg>
